<svg xmlns="http://www.w3.org/2000/svg" width="605" height="113.3878928" viewBox="0 13 160.07 40"
	xmlns:xlink="http://www.w3.org/1999/xlink">
	<defs>
		<linearGradient id="a" x1="128" x2="128" y1="244.428" y2="11.573"
			gradientUnits="userSpaceOnUse">
			<stop offset=".006" stop-color="#0035ed" />
			<stop offset=".545" stop-color="#00008d" />
			<stop offset="1" stop-color="#0053bd" />
		</linearGradient>
		<linearGradient id="b" x1="128" x2="127.999" y1="244.407" y2="11.546"
			gradientUnits="userSpaceOnUse">
			<stop offset=".006" stop-color="#428aff" />
			<stop offset=".573" stop-color="#94caff" />
			<stop offset="1" stop-color="#dcf0ff" />
		</linearGradient>
		<linearGradient id="c" x1="128.002" x2="128.002" y1="239.712" y2="16.285"
			gradientUnits="userSpaceOnUse">
			<stop offset="0" stop-color="#fff" />
			<stop offset=".5" stop-color="#006dff" />
			<stop offset="1" stop-color="#c9e6ff" />
		</linearGradient>
		<radialGradient id="d" cx="59.616" cy="234.039" r="69.963" fx="59.616" fy="234.039"
			gradientUnits="userSpaceOnUse" gradientTransform="matrix(1.42 0 0 1.42 43.42 -204.03)">
			<stop offset=".601" stop-color="#fff" />
			<stop offset=".876" stop-color="#eaeaf0" />
			<stop offset=".914" stop-color="#e6e6ed" />
			<stop offset=".95" stop-color="#dbdbe5" />
			<stop offset=".985" stop-color="#c8c8d7" />
			<stop offset="1" stop-color="#bdbdcf" />
		</radialGradient>
		<linearGradient id="e" x1="62.463" x2="154.298" y1="149.695" y2="149.695"
			gradientUnits="userSpaceOnUse" gradientTransform="matrix(.95 .05 .05 .94 -6.64 8.1)">
			<stop offset="0" stop-color="#f66" />
			<stop offset="1" stop-color="red" />
		</linearGradient>
		<linearGradient id="f" x1="-123.349" x2="-116.198" y1="-86.029" y2="-86.029"
			gradientUnits="userSpaceOnUse" gradientTransform="rotate(75 -115.57 197.2)">
			<stop offset="0" stop-color="#585868" />
			<stop offset=".008" stop-color="#656575" />
			<stop offset=".034" stop-color="#8b8b99" />
			<stop offset=".06" stop-color="#a8a8b6" />
			<stop offset=".086" stop-color="#bdbdcb" />
			<stop offset=".111" stop-color="#cacad7" />
			<stop offset=".135" stop-color="#cecedb" />
			<stop offset=".466" stop-color="#9a9ab1" />
			<stop offset=".854" stop-color="#7d7d99" />
			<stop offset="1" stop-color="#585868" />
		</linearGradient>
		<linearGradient id="g" x1="-218.144" x2="-210.992" y1="58.222" y2="58.222"
			gradientUnits="userSpaceOnUse" gradientTransform="rotate(120 -74.19 172.31)">
			<stop offset="0" stop-color="#585868" />
			<stop offset=".191" stop-color="#cecedb" />
			<stop offset=".466" stop-color="#9a9ab1" />
			<stop offset=".854" stop-color="#7d7d99" />
			<stop offset="1" stop-color="#585868" />
		</linearGradient>
		<linearGradient id="h" x1="116.54" x2="139.459" y1="128" y2="128"
			gradientUnits="userSpaceOnUse">
			<stop offset="0" stop-color="#9a9ab1" />
			<stop offset="1" stop-color="#585868" />
		</linearGradient>
		<radialGradient id="i" cx="126.62" cy="116.175" r="22.186" fx="126.62" fy="116.175"
			gradientUnits="userSpaceOnUse">
			<stop offset="0" stop-color="#9a9ab1" />
			<stop offset=".59" stop-color="#585868" />
			<stop offset="1" stop-color="#fff" />
		</radialGradient>
		<linearGradient id="j" x1="117.744" x2="137.875" y1="123.586" y2="123.586"
			gradientUnits="userSpaceOnUse">
			<stop offset="0" stop-color="#fff" />
			<stop offset="1" stop-color="#585868" />
		</linearGradient>
	</defs>
	<g fill="none" stroke="white" stroke-width=".26" transform="translate(0 -136.93)">
		<g transform="matrix(.99987 0 0 1.1421 -12.08 -3.5531)">
			<g id="lines">
				<!-- <path d="M22.5 123.2v140" /> -->
				<!-- <path d="M45.74 123.2v140" /> -->
				<!-- <path d="M92.2 123.2v140" /> -->
				<!-- <path d="M138.68 123.2v140" /> -->
				<!-- <path d="M162.2 123.2v140" /> -->
				<!-- <path d="M68.97 123.2v140" /> -->
				<!-- <path d="M115.44 123.2v140" /> -->
			</g>
		</g>
		<use xlink:href="#lines" transform="matrix(0 .99987 -1.1421 0 300.93 124.76)" />
	</g>
	<g transform="translate(0 -136.93) translate(-24.6,106.8)">
		<g transform="translate(3.0774 -95.48)">
			<g id="line">
				<g transform="matrix(.062012 0 0 .062012 70.492 151.04)">
					<g id="clock">
						<path fill="url(#a)"
							d="M4.98 128c0 67.832 55.188 123.02 123.022 123.02 67.83 0 123.018-55.188 123.018-123.02 0-67.833-55.187-123.02-123.018-123.02C60.168 4.98 4.98 60.166 4.98 128z" />
						<path fill="url(#b)"
							d="M12.38 128c0 63.754 51.868 115.62 115.622 115.62 63.752 0 115.617-51.866 115.617-115.62 0-63.754-51.87-115.622-115.62-115.622C64.25 12.378 12.38 64.246 12.38 128z" />
						<path fill="url(#c)"
							d="M16.285 128c0 61.604 50.12 111.712 111.717 111.712 61.602 0 111.717-50.108 111.717-111.712 0-61.598-50.12-111.715-111.72-111.715S16.28 66.402 16.28 128z" />
						<path fill="#fff"
							d="M128.002 30.242c-56.103 0-101.75 45.638-101.75 101.747 0 56.1 45.647 101.74 101.75 101.74 56.104 0 101.748-45.64 101.748-101.74 0-56.11-45.644-101.75-101.748-101.75z"
							opacity=".8" />
						<path fill="#00008d"
							d="M26.25 128c0 56.106 45.65 101.74 101.752 101.74 56.104 0 101.748-45.634 101.748-101.74 0-56.103-45.644-101.748-101.748-101.748C71.9 26.252 26.252 71.897 26.252 128z" />
						<path fill="url(#d)"
							d="M28.743 128c0 54.73 44.527 99.253 99.26 99.253 54.73 0 99.26-44.524 99.26-99.253 0-54.73-44.53-99.257-99.26-99.257-54.733 0-99.26 44.528-99.26 99.257z" />
						<g fill="#616161">
							<path
								d="M32.07 124.756c-1.104 0-2 .896-2 2v2.487c0 1.105.896 2 2 2h17.442c1.104 0 2-.895 2-2v-2.487c0-1.104-.896-2-2-2H32.07z" />
							<path
								d="M206.49 124.756c-1.104 0-2 .896-2 2v2.487c0 1.105.896 2 2 2h17.448c1.105 0 2-.895 2-2v-2.487c0-1.104-.895-2-2-2H206.49z" />
							<path
								d="M126.756 204.49c-1.105 0-2 .896-2 2v17.442c0 1.104.895 2 2 2h2.492c1.105 0 2-.896 2-2V206.49c0-1.104-.895-2-2-2h-2.492z" />
							<path
								d="M126.756 30.068c-1.105 0-2 .895-2 2v17.44c0 1.106.895 2 2 2h2.492c1.105 0 2-.894 2-2V32.07c0-1.105-.895-2-2-2h-2.492z" />
							<path
								d="M169.807 197.936l-2.152 1.25c-.953.554-1.278 1.775-.726 2.73l6.23 10.78c.55.954 1.77 1.282 2.73.732l2.15-1.24c.46-.265.79-.702.93-1.215.13-.513.06-1.06-.2-1.52l-6.24-10.79c-.27-.46-.71-.794-1.22-.93-.52-.137-1.06-.064-1.52.203z" />
							<path
								d="M80.115 42.566l-2.16 1.247c-.956.553-1.283 1.776-.73 2.733l6.23 10.784c.552.956 1.774 1.283 2.73.73l2.157-1.244c.956-.552 1.284-1.775.73-2.732L82.85 43.298c-.266-.46-.702-.795-1.215-.932-.513-.137-1.06-.065-1.518.2z" />
							<path
								d="M84.67 197.732c-.513.138-.95.473-1.216.933l-6.23 10.79c-.265.46-.337 1.006-.2 1.52.14.51.475.95.936 1.213l2.16 1.24c.955.55 2.176.222 2.728-.734l6.225-10.78c.552-.954.226-2.176-.728-2.73l-2.156-1.25c-.46-.265-1.01-.338-1.52-.202z" />
							<path
								d="M173.16 43.298l-6.232 10.79c-.265.46-.337 1.006-.2 1.518.138.513.473.95.933 1.215l2.16 1.25c.96.55 2.18.23 2.73-.73l6.24-10.78c.27-.46.34-1 .2-1.52-.13-.51-.47-.95-.93-1.21l-2.16-1.24c-.95-.55-2.18-.22-2.73.74z" />
							<path
								d="M54.085 166.925L43.3 173.158c-.46.266-.795.702-.932 1.215-.138.514-.064 1.06.2 1.52l1.248 2.153c.553.955 1.776 1.282 2.732.73l10.786-6.235c.46-.26.795-.7.932-1.21.136-.51.064-1.06-.203-1.51l-1.247-2.15c-.552-.95-1.775-1.28-2.73-.73z" />
							<path
								d="M209.457 77.223l-10.79 6.232c-.46.266-.795.705-.932 1.218-.136.514-.062 1.06.204 1.52l1.25 2.154c.55.95 1.77 1.276 2.73.725l10.78-6.23c.46-.264.79-.702.93-1.215.13-.513.06-1.06-.21-1.52l-1.25-2.156c-.56-.95-1.78-1.28-2.73-.72z" />
							<path
								d="M199.193 167.65l-1.254 2.153c-.27.46-.34 1.007-.21 1.52.13.514.47.952.93 1.218l10.79 6.24c.95.56 2.18.23 2.73-.73l1.25-2.16c.27-.46.34-1 .2-1.52-.14-.51-.48-.95-.94-1.21l-10.79-6.23c-.96-.55-2.18-.22-2.73.73z" />
							<path
								d="M43.815 77.954l-1.247 2.156c-.265.46-.338 1.006-.2 1.518.137.513.473.95.932 1.215l10.786 6.23c.956.55 2.18.223 2.73-.733l1.248-2.158c.266-.46.338-1.005.202-1.517-.138-.513-.473-.95-.933-1.215l-10.786-6.227c-.956-.553-2.18-.225-2.732.73z" />
						</g>
						<path d="M67.682 203.048l-2.928-2.5 79.35-92.938 2.927 2.5z" opacity=".2" />
						<path fill="url(#e)"
							d="M63.66 199.46l2.93 2.5 79.327-92.955-2.93-2.5L63.66 199.46" />
						<path
							d="M189.224 108.87c-.158-.584-.73-.94-1.28-.794l-62.29 16.69c-.55.148-.87.742-.712 1.33l1.85 6.906c.158.588.73.943 1.28.796l62.29-16.69c.55-.148.87-.743.713-1.33l-1.85-6.907z"
							opacity=".2" />
						<path fill="#585868"
							d="M188.124 107.77c-.157-.584-.73-.94-1.28-.794l-62.29 16.69c-.55.147-.87.743-.71 1.33l1.848 6.906c.16.588.73.944 1.28.796l62.292-16.69c.55-.148.87-.743.712-1.33l-1.852-6.907z" />
						<path fill="url(#f)"
							d="M187.13 108.04l1.85 6.905-62.29 16.69-1.85-6.906 62.29-16.69" />
						<path
							d="M145.558 133.43c.303-.528-.113-1.337-.934-1.81l-92.77-53.562c-.82-.474-1.73-.43-2.035.096l-3.58 6.192c-.31.526.11 1.336.93 1.81l92.77 53.56c.82.473 1.73.43 2.03-.096l3.57-6.19z"
							opacity=".2" />
						<path fill="#585868"
							d="M144.458 132.33c.304-.527-.113-1.338-.934-1.81l-92.77-53.562c-.82-.474-1.73-.43-2.034.096l-3.575 6.192c-.305.526.113 1.336.934 1.81l92.77 53.56c.82.474 1.73.43 2.03-.095l3.57-6.19z" />
						<path fill="url(#g)"
							d="M142.975 131.472l-3.577 6.19-92.77-53.56 3.576-6.19 92.77 53.56" />
						<path
							d="M117.64 129.102c0 6.318 5.14 11.46 11.458 11.46 6.32 0 11.462-5.142 11.462-11.46 0-6.322-5.143-11.464-11.462-11.464-6.32 0-11.458 5.142-11.458 11.464z"
							opacity=".2" />
						<path fill="url(#h)"
							d="M116.54 128c0 6.32 5.14 11.462 11.458 11.462 6.32 0 11.46-5.142 11.46-11.46 0-6.32-5.14-11.464-11.46-11.464-6.32 0-11.458 5.143-11.458 11.463z" />
						<path fill="url(#i)"
							d="M117.64 128c0 5.715 4.647 10.36 10.358 10.36 5.714 0 10.36-4.645 10.36-10.36 0-5.712-4.646-10.362-10.36-10.362-5.71 0-10.358 4.65-10.358 10.363z" />
						<path fill="url(#j)"
							d="M135.737 125.428c-1.08-3.242-4.137-5.59-7.74-5.59-4.227 0-7.713 3.236-8.116 7.363 5.34.39 10.74-.02 15.86-1.77z" />
					</g>
				</g>
				<use xlink:href="#clock" transform="matrix(.062012 0 0 .062012 163.66 151.04)" />
				<use xlink:href="#clock" transform="matrix(.062012 0 0 .062012 140.37 151.04)" />
				<use xlink:href="#clock" transform="matrix(.062012 0 0 .062012 117.08 151.04)" />
				<use xlink:href="#clock" transform="matrix(.062012 0 0 .062012 93.785 151.04)" />
				<use xlink:href="#clock" transform="matrix(.062012 0 0 .062012 47.199 151.04)" />
				<use xlink:href="#clock" transform="matrix(.062012 0 0 .062012 23.906 151.04)" />
			</g>
		</g>
		<!-- <use xlink:href="#line" transform="translate(3.0774 -95.147)" /> -->
		<!-- <use xlink:href="#line" transform="translate(3.0774 -71.812)" /> -->
		<!-- <use xlink:href="#line" transform="translate(3.0774 -48.478)" /> -->
		<!-- <use xlink:href="#line" transform="translate(3.0774 -25.144)" /> -->
		<!-- <use xlink:href="#line" transform="translate(3.0774 -1.8092)" /> -->
		<!-- <use xlink:href="#line" transform="translate(3.0775 21.525)" /> -->
	</g>
	<g transform="translate(0 -136.93)">
		<g fill="white" stroke="black" transform="matrix(.26458 0 0 .26458 -6.246 152.54)">
			<path
				d="M62.08 27.44c5.2 0 9.43-4.22 9.43-9.43 0-5.2-4.2-9.4-9.4-9.4s-9.4 4.2-9.4 9.4c0 5.3 4.3 9.5 9.5 9.5" />
			<path
				d="M72.5 29.86c6.68 0 12.14 5.4 12.14 12.07v29.23c0 2.28-1.8 4.13-4.07 4.13-2.28 0-4.13-1.9-4.13-4.2V44.8H74.3v73.34c0 3.06-2.48 5.53-5.54 5.53-3.05 0-5.53-2.47-5.53-5.53V75.56h-2.27v42.58c0 3.06-2.47 5.53-5.52 5.53-3.06 0-5.53-2.47-5.53-5.53V44.8h-2.1v26.4c0 2.28-1.8 4.13-4.1 4.13s-4-1.85-4-4.13V41.93c0-6.66 5.5-12.07 12.2-12.07z" />
		</g>
		<g transform="matrix(.026458 0 0 .026458 134.51 160.58)">
			<path fill="red"
				d="M94.63 36l205.54 157.53 41.85-148.9L401.1 196 564.8 54.44 476.17 237.8l140.3-4.9-91.07 114.45 121.85 78.76-145.23 2.5 128 153.8-183.38-84.9-19.7 164.9-89.83-132.9-125.5 171.1 12.3-214.1-171.1 34.4 107.1-140.3-87.4-142.7 121.9 23.4z" />
			<path fill="#ff8000"
				d="M160.2 118.8l154.32 118.28 31.42-111.8 44.36 113.65 122.9-106.26-66.54 137.68 105.35-3.7-68.3 85.94 91.5 59.1-109 1.8L562.3 529l-137.7-63.8-14.8 123.83-67.44-99.8-94.3 128.5 9.2-160.77-128.45 25.86 80.4-105.34-65.6-107.2 91.5 17.56z" />
			<path fill="#ff0"
				d="M226.24 204.2l99.1 75.96 20.18-71.8 28.48 73 78.93-68.25-42.73 88.5 67.65-2.4-43.9 55.2 58.74 38-70.1 1.2 61.7 74.2-88.4-40.9-9.5 79.5-43.3-64.1-60.6 82.5 5.9-103.2-82.5 16.6 51.6-67.6-42.2-68.8 58.9 11.2z" />
			<path d="M377.4 359.36a30.9 30.9 0 1 1-61.84 0 30.9 30.9 0 1 1 61.83 0z" />
		</g>
	</g>
</svg>
